PathFileType	4	(X/Y/Z)	C:/Users/opensim2020/Desktop/walking_exp_matlab/subject03_walking09_straight_01.trc	
DataRate	CameraRate	NumFrames	NumMarkers	Units	OrigDataRate	OrigDataStartFrame	OrigNumFrames	
100.00	100.00	5	47	mm	100.00	994	493	
Frame#	Time	LFHD			RFHD			LBHD			RBHD			C7			T10			CLAV			STRN			RBAK			LSHO			LUPA			LELB			LFRM			LWRA			LWRB			LFIN			RSHO			RUPA			RELB			RFRM			RWRA			RWRB			RFIN			LASI			RASI			LPSI			RPSI			LTHI			LKNE			LTIB			LANK			LHEE			LTOE			RTHI			RKNE			RTIB			RANK			RHEE			RTOE			*39			*40			*41			*42			*43			*44			*45			*46			
		X1	Y1	Z1	X2	Y2	Z2	X3	Y3	Z3	X4	Y4	Z4	X5	Y5	Z5	X6	Y6	Z6	X7	Y7	Z7	X8	Y8	Z8	X9	Y9	Z9	X10	Y10	Z10	X11	Y11	Z11	X12	Y12	Z12	X13	Y13	Z13	X14	Y14	Z14	X15	Y15	Z15	X16	Y16	Z16	X17	Y17	Z17	X18	Y18	Z18	X19	Y19	Z19	X20	Y20	Z20	X21	Y21	Z21	X22	Y22	Z22	X23	Y23	Z23	X24	Y24	Z24	X25	Y25	Z25	X26	Y26	Z26	X27	Y27	Z27	X28	Y28	Z28	X29	Y29	Z29	X30	Y30	Z30	X31	Y31	Z31	X32	Y32	Z32	X33	Y33	Z33	X34	Y34	Z34	X35	Y35	Z35	X36	Y36	Z36	X37	Y37	Z37	X38	Y38	Z38	X39	Y39	Z39	X40	Y40	Z40	X41	Y41	Z41	X42	Y42	Z42	X43	Y43	Z43	X44	Y44	Z44	X45	Y45	Z45	X46	Y46	Z46	X47	Y47	Z47	

370	3.690	-1073.37964	651.35846	1607.91211	-941.47009	637.16711	1615.22046	-1081.44824	521.32715	1571.74902	-951.17157	512.87268	1578.61279	-1011.11475	479.08234	1411.87610	-1001.05206	437.41205	1099.63635	-1015.62939	598.16364	1331.86523	-1019.06299	637.37646	1165.96448	-904.82751	429.39001	1240.40710	-1169.41418	543.26984	1366.72266	-1237.68933	518.93311	1168.93005	-1251.87048	522.43030	1046.58984	-1256.84595	557.41492	921.28021	-1231.15222	592.88232	806.87842	-1275.70154	558.76923	808.62811	-1270.54810	585.56787	728.51300	-854.74518	566.28729	1359.50769	-778.17108	603.49164	1142.61462	-767.00452	641.54297	1036.90381	-773.07587	692.99561	910.33966	-817.92688	740.39801	827.18628	-769.97510	719.63043	813.48346	-786.63812	759.91394	752.80353	-1124.02563	597.56805	934.24744	-887.08997	607.67157	933.73810	-1070.90051	437.00613	951.80298	-921.06128	445.16751	966.50269	-1175.57837	612.63947	638.18372	-1141.05139	681.67462	473.19641	-1143.89612	659.06085	279.71445	-1109.40271	671.85748	68.81296	-1070.86060	636.42230	30.02860	-1090.79895	820.14825	48.02163	-849.67639	530.82886	640.32465	-884.44666	523.97192	460.36865	-882.72791	453.74982	280.71954	-931.21997	395.29111	71.63065	-981.99597	348.99252	41.25478	-939.23621	534.00745	31.64830	-1032.17322	568.25751	1675.50903																					 
371	3.700	-1074.61035	658.39825	1606.72974	-942.74677	644.34747	1614.43127	-1082.51196	528.29645	1570.72949	-952.24194	519.95453	1577.95459	-1011.74188	485.94305	1411.04236	-1001.73914	443.99823	1098.75232	-1016.33484	604.94568	1330.92969	-1019.58557	644.03625	1164.98120	-905.27826	436.12103	1239.76477	-1170.07959	549.84241	1365.65112	-1237.77759	524.83423	1167.67285	-1251.95911	528.06708	1045.45935	-1256.89990	562.83002	920.09198	-1231.14990	598.44781	805.78735	-1275.53723	564.04041	807.40247	-1270.34644	590.74921	727.30005	-855.45624	573.28754	1358.63306	-779.06268	610.73932	1141.71704	-768.29468	649.17236	1036.15173	-775.22827	701.09674	909.94769	-820.77148	749.02539	827.31714	-772.76337	728.59180	813.23749	-790.04767	769.28271	752.90955	-1124.40833	604.64313	933.49683	-886.87976	613.04266	932.61456	-1071.71167	443.62247	950.73468	-921.81183	451.24176	965.59692	-1175.96448	618.61285	636.58923	-1140.26892	687.87531	472.07297	-1143.66248	671.44489	278.65155	-1109.81763	691.71808	68.24683	-1071.61047	656.40112	30.14939	-1091.20203	841.05200	49.77358	-849.72974	535.37769	639.87671	-884.52570	527.26617	459.91522	-882.77069	455.66092	280.69211	-931.24249	395.51447	72.08971	-981.96405	349.03455	41.92692	-939.21948	534.04321	31.60337	-1033.10449	574.92017	1672.56702																					 
372	3.710	-1075.87317	665.47443	1605.63428	-944.01355	651.43842	1613.66174	-1083.63257	535.34576	1569.72070	-953.30615	527.10883	1577.26929	-1012.44928	492.81995	1410.24792	-1002.52106	450.62042	1097.89844	-1017.05188	611.77258	1330.00208	-1020.12537	650.66522	1164.00391	-905.81335	442.72290	1239.05615	-1170.85645	556.59729	1364.62610	-1238.28418	531.08380	1166.66528	-1252.10010	533.68030	1044.26831	-1256.95032	568.34619	918.86578	-1231.18567	603.99548	804.52454	-1275.08032	569.16010	805.95313	-1270.04407	596.06903	726.05579	-856.19623	580.30060	1357.82825	-780.04431	617.98615	1140.81165	-769.62067	656.71741	1035.32605	-777.36731	709.32452	909.41248	-823.60748	757.42963	827.37927	-775.60370	737.31158	812.85034	-793.45496	778.25104	752.89288	-1124.83533	611.58844	932.41650	-887.15045	619.10925	931.72540	-1072.54700	450.25986	949.70105	-922.66254	457.33548	964.66638	-1176.38794	624.76135	635.00836	-1139.64026	694.21057	470.85822	-1143.32300	683.30725	277.96698	-1110.36292	709.68384	68.14065	-1071.91418	675.29797	29.64236	-1091.84973	859.77911	50.61803	-849.98102	539.95703	639.32965	-884.69299	530.55859	459.46173	-882.88013	457.58258	280.62009	-931.21143	395.62283	72.44264	-981.97314	349.28992	42.56469	-938.98914	534.17523	31.66054	-1034.32361	582.03375	1671.71875																					 
373	3.720	-1077.09363	672.51160	1604.58594	-945.23901	658.55310	1612.95642	-1084.78479	542.43689	1568.75452	-954.50342	534.13910	1576.57251	-1013.19873	499.82327	1409.48120	-1003.35229	457.29150	1097.18176	-1017.81561	618.64630	1329.12988	-1020.63336	657.31317	1163.06531	-906.46185	449.43292	1238.49341	-1171.63464	563.41675	1363.57678	-1238.50989	537.50970	1165.40356	-1252.21460	539.54480	1042.88525	-1256.97656	574.00873	917.57483	-1231.11340	609.61115	803.27222	-1274.83569	574.53149	804.63556	-1269.62952	601.32770	724.64600	-856.97168	587.38330	1356.96167	-781.04492	625.15033	1139.86340	-770.98663	664.11115	1034.39429	-779.63147	717.20337	908.80573	-826.41882	765.61310	827.23309	-778.60626	745.67987	812.34869	-796.74060	786.78137	752.72461	-1125.23242	618.62006	931.35608	-887.43018	625.07843	930.84918	-1073.61304	457.05792	948.56445	-923.67206	463.37683	963.74353	-1176.91296	631.05695	633.53339	-1138.94055	700.78198	469.71353	-1143.36377	694.11804	277.29861	-1110.73828	725.41138	67.52183	-1071.97864	692.18488	29.35284	-1092.45996	876.78369	51.74118	-850.33282	544.60913	638.88037	-884.81281	533.99988	459.05777	-883.02606	459.65866	280.65131	-931.23450	396.05377	73.04028	-981.86157	349.15613	43.46928	-939.31671	534.01752	31.51861	-1035.73157	589.17401	1670.85852																					 
374	3.730	-1078.37988	679.67822	1603.58069	-946.53033	665.61615	1612.24573	-1085.96191	549.52136	1567.73096	-955.71729	541.24091	1575.91907	-1014.04321	506.88489	1408.76172	-1004.22357	464.23938	1096.20093	-1018.55408	625.61414	1328.25183	-1021.16187	664.16357	1162.14429	-907.08539	456.28235	1238.02380	-1172.44043	570.41931	1362.51025	-1239.12109	544.21075	1164.38354	-1252.43848	545.91522	1041.86279	-1256.98499	579.80859	916.28052	-1230.93262	615.32098	802.02252	-1274.55066	580.05664	803.26447	-1269.16687	606.66754	723.21600	-857.76001	594.38831	1356.13818	-782.13611	632.34106	1139.01062	-772.45654	671.43347	1033.48083	-781.84088	724.94720	908.09869	-829.21576	773.49042	827.03192	-781.29657	753.81232	811.80615	-800.03003	795.20935	752.44452	-1125.65234	625.84363	930.31970	-887.72052	631.03839	930.02124	-1074.79517	463.89420	947.61847	-924.76263	469.50937	962.89313	-1177.75854	637.65961	632.33435	-1138.49658	707.53540	468.75751	-1143.83276	703.50739	276.37195	-1111.30701	740.38080	67.83217	-1072.29004	708.02008	28.71139	-1093.02039	892.40613	53.32694	-850.72864	549.39923	638.31689	-885.11377	537.55463	458.64630	-883.14331	461.75320	280.77878	-931.22650	396.41415	73.61349	-981.82690	349.23389	44.39383	-939.29474	534.04974	31.45391	-1037.40051	596.52869	1670.24939																					 
